<svg width="218" height="60" viewBox="0 0 218 60" fill="none" xmlns="http://www.w3.org/2000/svg">
<g filter="url(#filter0_d_105_7)">
<path d="M59.784 44.1269C49.9721 51.0053 41.7584 51.4306 38.878 50.7834C40.439 30.1481 54.9524 14.8195 62.0139 9.7346C51.7561 12.841 43.6167 26.7458 40.8292 33.3099C39.7142 25.1002 34.9755 18.7949 32.7456 16.6685C35.3231 10.7698 38.6156 9.85122 38.8766 9.74629C38.8775 9.73865 38.878 9.7346 38.878 9.7346C38.899 9.7346 38.8978 9.73774 38.8766 9.74629C38.8653 9.842 38.7919 10.5016 38.878 10.844C40.216 7.51574 43.7096 5.75915 45.2892 5.29689L45.5679 5.8516C48.4669 2.7452 52.5365 1.9686 54.209 1.9686L53.9303 2.80067C57.2752 0.803702 62.0139 0.30446 63.9651 0.30446L63.4076 1.13653C67.6446 0.0271015 71.4913 -0.0653509 72.885 0.0271015C72.885 2.24596 71.9559 5.75915 71.4913 7.23838H73.4425C73.6655 9.01347 72.7921 13.3402 72.3275 15.2817C72.6063 15.2817 72.6063 15.0044 74 15.0044C73.331 18.3327 71.3055 21.7534 70.3763 23.0477C70.5993 22.8258 71.5842 22.9553 72.0488 23.0477C71.8258 26.1541 69.5401 29.1496 68.4251 30.259H69.5401C67.9791 33.8092 65.3589 35.9911 64.2439 36.6382H65.0801C63.1009 40.577 60.0552 42.8614 58.7238 43.5444C58.8531 43.5946 59.1569 43.7525 59.784 44.1269Z" fill="#60C4A3"/>
<path d="M35.8118 23.8798C40.4947 38.7461 36.4622 47.0853 33.8606 49.3967C31.4076 33.6428 19.4587 22.493 13.7908 18.8874C28.7316 33.7537 31.166 46.1608 30.5156 50.5061C18.4738 50.9498 12.49 43.4797 11.0034 39.6892L11.2821 39.1344H10.4459C7.76992 37.1375 6.9151 35.159 6.82219 34.4194L7.37968 33.8647C5.5957 31.6458 5.14971 29.0571 5.14971 28.0402H5.7072C4.59222 26.487 4.12764 23.51 4.03472 22.2157H4.87096C3.97897 19.7749 3.9418 17.3157 4.03472 16.3912H4.87096C4.20197 13.9504 4.40638 11.3063 4.59221 10.2893C7.93716 10.2893 11.1892 11.2138 12.3971 11.6761V10.844C16.188 10.844 18.6224 12.3233 19.3658 13.0629V12.2308C21.8187 12.4527 24.8478 14.727 26.0557 15.8365L26.3344 14.727C28.7874 16.0583 30.3298 18.4251 30.7943 19.4421L31.3518 18.8874C33.1358 20.6625 34.3251 23.1402 34.6968 24.1572L35.8118 23.8798Z" fill="#60C4A3"/>
</g>
<path d="M76.4148 51V29.1818H82.1818V33.0312H82.4375C82.892 31.7528 83.6496 30.7443 84.7102 30.0057C85.7708 29.267 87.0398 28.8977 88.517 28.8977C90.0133 28.8977 91.2869 29.2718 92.3381 30.0199C93.3892 30.7585 94.09 31.7623 94.4403 33.0312H94.6676C95.1127 31.7812 95.9176 30.7822 97.0824 30.0341C98.2566 29.2765 99.6439 28.8977 101.244 28.8977C103.28 28.8977 104.933 29.5464 106.202 30.8438C107.48 32.1316 108.119 33.9593 108.119 36.3267V51H102.082V37.5199C102.082 36.3078 101.76 35.3987 101.116 34.7926C100.473 34.1866 99.6676 33.8835 98.7017 33.8835C97.6032 33.8835 96.7462 34.2339 96.1307 34.9347C95.5152 35.6259 95.2074 36.5398 95.2074 37.6761V51H89.3409V37.392C89.3409 36.322 89.0331 35.4697 88.4176 34.8352C87.8116 34.2008 87.0114 33.8835 86.017 33.8835C85.3447 33.8835 84.7386 34.054 84.1989 34.3949C83.6686 34.7263 83.2472 35.1951 82.9347 35.8011C82.6222 36.3977 82.4659 37.0985 82.4659 37.9034V51H76.4148ZM112.899 51V29.1818H118.95V51H112.899ZM115.939 26.3693C115.039 26.3693 114.268 26.071 113.624 25.4744C112.989 24.8684 112.672 24.1439 112.672 23.3011C112.672 22.4678 112.989 21.7528 113.624 21.1562C114.268 20.5502 115.039 20.2472 115.939 20.2472C116.839 20.2472 117.606 20.5502 118.24 21.1562C118.884 21.7528 119.206 22.4678 119.206 23.3011C119.206 24.1439 118.884 24.8684 118.24 25.4744C117.606 26.071 116.839 26.3693 115.939 26.3693ZM129.849 38.3864V51H123.798V29.1818H129.565V33.0312H129.82C130.303 31.7623 131.113 30.7585 132.249 30.0199C133.386 29.2718 134.763 28.8977 136.383 28.8977C137.898 28.8977 139.219 29.2292 140.346 29.892C141.473 30.5549 142.349 31.5019 142.974 32.733C143.599 33.9545 143.911 35.4129 143.911 37.108V51H137.86V38.1875C137.87 36.8523 137.529 35.8106 136.837 35.0625C136.146 34.3049 135.194 33.9261 133.982 33.9261C133.168 33.9261 132.448 34.1013 131.823 34.4517C131.208 34.8021 130.725 35.3134 130.374 35.9858C130.033 36.6487 129.858 37.4489 129.849 38.3864ZM160.286 29.1818V33.7273H147.146V29.1818H160.286ZM150.129 23.9545H156.18V44.2955C156.18 44.8542 156.266 45.2898 156.436 45.6023C156.607 45.9053 156.843 46.1184 157.146 46.2415C157.459 46.3646 157.819 46.4261 158.226 46.4261C158.51 46.4261 158.794 46.4025 159.078 46.3551C159.362 46.2983 159.58 46.2557 159.732 46.2273L160.683 50.7301C160.38 50.8248 159.954 50.9337 159.405 51.0568C158.856 51.1894 158.188 51.2699 157.402 51.2983C155.944 51.3551 154.665 51.161 153.567 50.7159C152.478 50.2708 151.63 49.5795 151.024 48.642C150.418 47.7045 150.12 46.5208 150.129 45.0909V23.9545Z" fill="white"/>
<path d="M174.955 51H164.202V21.9091H174.94C177.904 21.9091 180.456 22.4915 182.597 23.6562C184.746 24.8116 186.403 26.4782 187.568 28.6562C188.733 30.8248 189.315 33.4195 189.315 36.4403C189.315 39.4706 188.733 42.0748 187.568 44.2528C186.413 46.4309 184.76 48.1023 182.611 49.267C180.461 50.4223 177.909 51 174.955 51ZM171.233 45.0057H174.685C176.313 45.0057 177.691 44.7311 178.818 44.1818C179.955 43.6231 180.812 42.7188 181.389 41.4688C181.976 40.2093 182.27 38.5331 182.27 36.4403C182.27 34.3475 181.976 32.6809 181.389 31.4403C180.802 30.1903 179.936 29.2907 178.79 28.7415C177.653 28.1828 176.252 27.9034 174.585 27.9034H171.233V45.0057ZM193.42 51V21.9091H205.551C207.729 21.9091 209.552 22.2169 211.02 22.8324C212.497 23.4479 213.605 24.3097 214.344 25.4176C215.092 26.5256 215.466 27.8087 215.466 29.267C215.466 30.375 215.234 31.3646 214.77 32.2358C214.306 33.0975 213.667 33.8125 212.852 34.3807C212.038 34.9489 211.096 35.3466 210.026 35.5739V35.858C211.2 35.9148 212.284 36.232 213.278 36.8097C214.282 37.3873 215.087 38.1922 215.693 39.2244C216.299 40.2472 216.602 41.4593 216.602 42.8608C216.602 44.4233 216.205 45.8201 215.409 47.0511C214.614 48.2727 213.463 49.2386 211.957 49.9489C210.452 50.6496 208.624 51 206.474 51H193.42ZM200.452 45.3324H204.798C206.323 45.3324 207.445 45.0436 208.165 44.4659C208.894 43.8883 209.259 43.0833 209.259 42.0511C209.259 41.303 209.083 40.6591 208.733 40.1193C208.383 39.5701 207.885 39.1487 207.241 38.8551C206.598 38.5521 205.826 38.4006 204.926 38.4006H200.452V45.3324ZM200.452 33.8693H204.344C205.111 33.8693 205.793 33.7415 206.389 33.4858C206.986 33.2301 207.45 32.8608 207.781 32.3778C208.122 31.8949 208.293 31.3125 208.293 30.6307C208.293 29.6553 207.947 28.8883 207.256 28.3295C206.564 27.7708 205.632 27.4915 204.457 27.4915H200.452V33.8693Z" fill="#60C4A3"/>
<defs>
<filter id="filter0_d_105_7" x="0" y="0" width="78" height="59" filterUnits="userSpaceOnUse" color-interpolation-filters="sRGB">
<feFlood flood-opacity="0" result="BackgroundImageFix"/>
<feColorMatrix in="SourceAlpha" type="matrix" values="0 0 0 0 0 0 0 0 0 0 0 0 0 0 0 0 0 0 127 0" result="hardAlpha"/>
<feOffset dy="4"/>
<feGaussianBlur stdDeviation="2"/>
<feComposite in2="hardAlpha" operator="out"/>
<feColorMatrix type="matrix" values="0 0 0 0 0 0 0 0 0 0 0 0 0 0 0 0 0 0 0.25 0"/>
<feBlend mode="normal" in2="BackgroundImageFix" result="effect1_dropShadow_105_7"/>
<feBlend mode="normal" in="SourceGraphic" in2="effect1_dropShadow_105_7" result="shape"/>
</filter>
</defs>
</svg>
